<svg width="32" height="32" viewBox="0 0 32 32" fill="none" xmlns="http://www.w3.org/2000/svg">
<path d="M7 27.9998C6.73478 27.9998 6.48043 27.8945 6.29289 27.7069C6.10536 27.5194 6 27.265 6 26.9998V4.99983C6.00003 4.82606 6.04534 4.65529 6.13147 4.50437C6.21759 4.35344 6.34156 4.22757 6.49115 4.13914C6.64074 4.05072 6.8108 4.0028 6.98455 4.00012C7.1583 3.99743 7.32975 4.04007 7.482 4.12383L27.482 15.1238C27.6388 15.2102 27.7695 15.337 27.8606 15.4911C27.9517 15.6451 27.9997 15.8208 27.9997 15.9998C27.9997 16.1788 27.9517 16.3545 27.8606 16.5086C27.7695 16.6627 27.6388 16.7895 27.482 16.8758L7.482 27.8758C7.33435 27.9571 7.16855 27.9998 7 27.9998Z" fill="#F37A5C"/>
</svg>
